<svg width="270" height="51" viewBox="0 0 270 51" fill="none" xmlns="http://www.w3.org/2000/svg">
<rect x="0.5" y="0.5" width="269" height="50" rx="24.5" fill="url(#paint0_linear_2428_992)" stroke="#484A74"/>
<path d="M110.244 34V16.1045H113.759L121.083 28.0552V16.1045H124.44V34H120.815L113.601 22.3301V34H110.244ZM135.756 29.874L139.174 30.4478C138.735 31.701 138.039 32.6572 137.087 33.3164C136.143 33.9674 134.959 34.293 133.535 34.293C131.28 34.293 129.612 33.5565 128.53 32.0835C127.675 30.9035 127.248 29.4142 127.248 27.6157C127.248 25.4673 127.81 23.7868 128.933 22.5742C130.056 21.3535 131.476 20.7432 133.193 20.7432C135.122 20.7432 136.643 21.382 137.758 22.6597C138.873 23.9292 139.406 25.8783 139.357 28.5068H130.764C130.788 29.5241 131.065 30.3175 131.594 30.8872C132.123 31.4487 132.782 31.7295 133.571 31.7295C134.108 31.7295 134.56 31.583 134.926 31.29C135.292 30.9971 135.569 30.5251 135.756 29.874ZM135.952 26.4072C135.927 25.4144 135.671 24.6616 135.183 24.1489C134.694 23.6281 134.1 23.3677 133.4 23.3677C132.652 23.3677 132.033 23.6403 131.545 24.1855C131.057 24.7308 130.817 25.4714 130.825 26.4072H135.952ZM140.517 34L145.192 27.3228L140.712 21.0361H144.899L147.194 24.6006L149.611 21.0361H153.64L149.245 27.1763L154.042 34H149.831L147.194 29.9839L144.533 34H140.517ZM162.026 21.0361V23.7705H159.682V28.9951C159.682 30.0531 159.702 30.6715 159.743 30.8506C159.792 31.0215 159.894 31.1639 160.048 31.2778C160.211 31.3918 160.406 31.4487 160.634 31.4487C160.952 31.4487 161.411 31.3389 162.014 31.1191L162.307 33.7803C161.509 34.1221 160.606 34.293 159.597 34.293C158.978 34.293 158.421 34.1912 157.924 33.9878C157.428 33.7762 157.062 33.5076 156.826 33.1821C156.598 32.8485 156.439 32.4009 156.35 31.8394C156.276 31.4406 156.24 30.6349 156.24 29.4224V23.7705H154.665V21.0361H156.24V18.4604L159.682 16.4585V21.0361H162.026Z" fill="white"/>
<defs>
<linearGradient id="paint0_linear_2428_992" x1="135" y1="0" x2="135" y2="51" gradientUnits="userSpaceOnUse">
<stop stop-color="#0029FF" stop-opacity="0.3"/>
<stop offset="1" stop-color="#0029FF" stop-opacity="0.15"/>
</linearGradient>
</defs>
</svg>
